<mxfile host="app.diagrams.net" modified="2021-10-19T18:50:54.659Z" agent="5.0 (Windows NT 10.0; Win64; x64) AppleWebKit/537.36 (KHTML, like Gecko) Chrome/94.0.4606.81 Safari/537.36" etag="qL8p_ji6lARhSAz_OQfK" version="15.5.6" type="github">
  <diagram id="gB4mvEdkPmmg1pjdg4j7" name="Page-1">
    <mxGraphModel dx="1662" dy="798" grid="1" gridSize="10" guides="1" tooltips="1" connect="1" arrows="1" fold="1" page="1" pageScale="1" pageWidth="827" pageHeight="1169" math="0" shadow="0">
      <root>
        <mxCell id="0" />
        <mxCell id="1" parent="0" />
        <mxCell id="GW2W4hNWjXhKejxjapf5-16" value="password" style="ellipse;whiteSpace=wrap;html=1;" vertex="1" parent="1">
          <mxGeometry x="120" y="40" width="120" height="80" as="geometry" />
        </mxCell>
        <mxCell id="GW2W4hNWjXhKejxjapf5-21" value="" style="endArrow=none;html=1;rounded=0;exitX=0.5;exitY=1;exitDx=0;exitDy=0;" edge="1" parent="1" source="GW2W4hNWjXhKejxjapf5-16">
          <mxGeometry relative="1" as="geometry">
            <mxPoint x="160" y="130" as="sourcePoint" />
            <mxPoint x="190" y="190" as="targetPoint" />
            <Array as="points">
              <mxPoint x="190" y="200" />
            </Array>
          </mxGeometry>
        </mxCell>
        <mxCell id="GW2W4hNWjXhKejxjapf5-22" value="username" style="rounded=0;whiteSpace=wrap;html=1;" vertex="1" parent="1">
          <mxGeometry x="140" y="190" width="120" height="60" as="geometry" />
        </mxCell>
        <mxCell id="GW2W4hNWjXhKejxjapf5-23" value="" style="endArrow=none;html=1;rounded=0;" edge="1" parent="1" target="GW2W4hNWjXhKejxjapf5-24">
          <mxGeometry width="50" height="50" relative="1" as="geometry">
            <mxPoint x="260" y="220" as="sourcePoint" />
            <mxPoint x="350" y="220" as="targetPoint" />
          </mxGeometry>
        </mxCell>
        <mxCell id="GW2W4hNWjXhKejxjapf5-24" value="continue" style="rhombus;whiteSpace=wrap;html=1;" vertex="1" parent="1">
          <mxGeometry x="310" y="180" width="80" height="80" as="geometry" />
        </mxCell>
        <mxCell id="GW2W4hNWjXhKejxjapf5-25" value="M" style="endArrow=none;html=1;rounded=0;entryX=0.5;entryY=0;entryDx=0;entryDy=0;" edge="1" parent="1" target="GW2W4hNWjXhKejxjapf5-24">
          <mxGeometry width="50" height="50" relative="1" as="geometry">
            <mxPoint x="260" y="190" as="sourcePoint" />
            <mxPoint x="310" y="140" as="targetPoint" />
            <Array as="points" />
          </mxGeometry>
        </mxCell>
        <mxCell id="GW2W4hNWjXhKejxjapf5-26" value="N" style="text;html=1;strokeColor=none;fillColor=none;align=center;verticalAlign=middle;whiteSpace=wrap;rounded=0;" vertex="1" parent="1">
          <mxGeometry x="240" y="240" width="60" height="30" as="geometry" />
        </mxCell>
        <mxCell id="GW2W4hNWjXhKejxjapf5-27" value="mail" style="ellipse;whiteSpace=wrap;html=1;" vertex="1" parent="1">
          <mxGeometry x="250" y="290" width="120" height="70" as="geometry" />
        </mxCell>
        <mxCell id="GW2W4hNWjXhKejxjapf5-28" value="Username" style="ellipse;whiteSpace=wrap;html=1;" vertex="1" parent="1">
          <mxGeometry x="60" y="290" width="120" height="70" as="geometry" />
        </mxCell>
        <mxCell id="GW2W4hNWjXhKejxjapf5-29" value="" style="endArrow=none;html=1;rounded=0;exitX=0.725;exitY=0.043;exitDx=0;exitDy=0;exitPerimeter=0;" edge="1" parent="1" source="GW2W4hNWjXhKejxjapf5-28">
          <mxGeometry width="50" height="50" relative="1" as="geometry">
            <mxPoint x="155" y="300" as="sourcePoint" />
            <mxPoint x="205" y="250" as="targetPoint" />
          </mxGeometry>
        </mxCell>
        <mxCell id="GW2W4hNWjXhKejxjapf5-30" value="" style="endArrow=none;html=1;rounded=0;exitX=0;exitY=0;exitDx=0;exitDy=0;" edge="1" parent="1" source="GW2W4hNWjXhKejxjapf5-27">
          <mxGeometry width="50" height="50" relative="1" as="geometry">
            <mxPoint x="155" y="300" as="sourcePoint" />
            <mxPoint x="205" y="250" as="targetPoint" />
          </mxGeometry>
        </mxCell>
        <mxCell id="GW2W4hNWjXhKejxjapf5-31" value="" style="endArrow=none;html=1;rounded=0;" edge="1" parent="1">
          <mxGeometry width="50" height="50" relative="1" as="geometry">
            <mxPoint x="270" y="450" as="sourcePoint" />
            <mxPoint x="205" y="250" as="targetPoint" />
          </mxGeometry>
        </mxCell>
        <mxCell id="GW2W4hNWjXhKejxjapf5-32" value="" style="endArrow=none;html=1;rounded=0;" edge="1" parent="1">
          <mxGeometry width="50" height="50" relative="1" as="geometry">
            <mxPoint x="150" y="460" as="sourcePoint" />
            <mxPoint x="205" y="250" as="targetPoint" />
          </mxGeometry>
        </mxCell>
        <mxCell id="GW2W4hNWjXhKejxjapf5-34" value="reproducir" style="rhombus;whiteSpace=wrap;html=1;" vertex="1" parent="1">
          <mxGeometry x="230" y="450" width="80" height="80" as="geometry" />
        </mxCell>
        <mxCell id="GW2W4hNWjXhKejxjapf5-35" value="crear" style="rhombus;whiteSpace=wrap;html=1;" vertex="1" parent="1">
          <mxGeometry x="110" y="460" width="80" height="80" as="geometry" />
        </mxCell>
        <mxCell id="GW2W4hNWjXhKejxjapf5-36" value="playlist" style="rounded=0;whiteSpace=wrap;html=1;" vertex="1" parent="1">
          <mxGeometry x="150" y="600" width="120" height="60" as="geometry" />
        </mxCell>
        <mxCell id="GW2W4hNWjXhKejxjapf5-37" value="" style="endArrow=none;html=1;rounded=0;entryX=0.5;entryY=1;entryDx=0;entryDy=0;exitX=0.5;exitY=1;exitDx=0;exitDy=0;" edge="1" parent="1" source="GW2W4hNWjXhKejxjapf5-35" target="GW2W4hNWjXhKejxjapf5-34">
          <mxGeometry width="50" height="50" relative="1" as="geometry">
            <mxPoint x="120" y="490" as="sourcePoint" />
            <mxPoint x="170" y="440" as="targetPoint" />
            <Array as="points">
              <mxPoint x="210" y="600" />
            </Array>
          </mxGeometry>
        </mxCell>
        <mxCell id="GW2W4hNWjXhKejxjapf5-38" value="" style="endArrow=none;html=1;rounded=0;" edge="1" parent="1" target="GW2W4hNWjXhKejxjapf5-39">
          <mxGeometry width="50" height="50" relative="1" as="geometry">
            <mxPoint x="130" y="760" as="sourcePoint" />
            <mxPoint x="300" y="760" as="targetPoint" />
            <Array as="points">
              <mxPoint x="210" y="660" />
            </Array>
          </mxGeometry>
        </mxCell>
        <mxCell id="GW2W4hNWjXhKejxjapf5-39" value="name" style="ellipse;whiteSpace=wrap;html=1;" vertex="1" parent="1">
          <mxGeometry x="280" y="720" width="80" height="40" as="geometry" />
        </mxCell>
        <mxCell id="GW2W4hNWjXhKejxjapf5-40" value="id" style="ellipse;whiteSpace=wrap;html=1;" vertex="1" parent="1">
          <mxGeometry x="90" y="760" width="80" height="40" as="geometry" />
        </mxCell>
        <mxCell id="GW2W4hNWjXhKejxjapf5-41" value="" style="endArrow=none;html=1;rounded=0;" edge="1" parent="1">
          <mxGeometry width="50" height="50" relative="1" as="geometry">
            <mxPoint x="270" y="635" as="sourcePoint" />
            <mxPoint x="410" y="585" as="targetPoint" />
            <Array as="points">
              <mxPoint x="380" y="600" />
            </Array>
          </mxGeometry>
        </mxCell>
        <mxCell id="GW2W4hNWjXhKejxjapf5-42" value="canciones" style="rounded=0;whiteSpace=wrap;html=1;" vertex="1" parent="1">
          <mxGeometry x="410" y="555" width="80" height="35" as="geometry" />
        </mxCell>
        <mxCell id="GW2W4hNWjXhKejxjapf5-43" value="contiene/pertenece" style="rhombus;whiteSpace=wrap;html=1;" vertex="1" parent="1">
          <mxGeometry x="414" y="390" width="116" height="80" as="geometry" />
        </mxCell>
        <mxCell id="GW2W4hNWjXhKejxjapf5-44" value="" style="endArrow=none;html=1;rounded=0;entryX=0.5;entryY=1;entryDx=0;entryDy=0;" edge="1" parent="1" target="GW2W4hNWjXhKejxjapf5-43">
          <mxGeometry width="50" height="50" relative="1" as="geometry">
            <mxPoint x="460" y="555" as="sourcePoint" />
            <mxPoint x="510" y="505" as="targetPoint" />
          </mxGeometry>
        </mxCell>
        <mxCell id="GW2W4hNWjXhKejxjapf5-46" value="" style="endArrow=none;html=1;rounded=0;exitX=0.5;exitY=0;exitDx=0;exitDy=0;entryX=0.25;entryY=1;entryDx=0;entryDy=0;entryPerimeter=0;" edge="1" parent="1" source="GW2W4hNWjXhKejxjapf5-43">
          <mxGeometry width="50" height="50" relative="1" as="geometry">
            <mxPoint x="480" y="390" as="sourcePoint" />
            <mxPoint x="520" y="350" as="targetPoint" />
          </mxGeometry>
        </mxCell>
        <mxCell id="GW2W4hNWjXhKejxjapf5-71" style="edgeStyle=orthogonalEdgeStyle;rounded=0;orthogonalLoop=1;jettySize=auto;html=1;" edge="1" parent="1" source="GW2W4hNWjXhKejxjapf5-47" target="GW2W4hNWjXhKejxjapf5-50">
          <mxGeometry relative="1" as="geometry" />
        </mxCell>
        <mxCell id="GW2W4hNWjXhKejxjapf5-47" value="albun" style="rounded=0;whiteSpace=wrap;html=1;" vertex="1" parent="1">
          <mxGeometry x="490" y="290" width="120" height="60" as="geometry" />
        </mxCell>
        <mxCell id="GW2W4hNWjXhKejxjapf5-48" value="aÃ±o" style="ellipse;whiteSpace=wrap;html=1;" vertex="1" parent="1">
          <mxGeometry x="640" y="300" width="120" height="80" as="geometry" />
        </mxCell>
        <mxCell id="GW2W4hNWjXhKejxjapf5-49" value="titulo" style="ellipse;whiteSpace=wrap;html=1;" vertex="1" parent="1">
          <mxGeometry x="630" y="220" width="120" height="40" as="geometry" />
        </mxCell>
        <mxCell id="GW2W4hNWjXhKejxjapf5-50" value="lanzamiento" style="rhombus;whiteSpace=wrap;html=1;" vertex="1" parent="1">
          <mxGeometry x="600" y="420" width="80" height="60" as="geometry" />
        </mxCell>
        <mxCell id="GW2W4hNWjXhKejxjapf5-51" value="id" style="ellipse;whiteSpace=wrap;html=1;" vertex="1" parent="1">
          <mxGeometry x="570" y="560" width="70" height="40" as="geometry" />
        </mxCell>
        <mxCell id="GW2W4hNWjXhKejxjapf5-52" value="lanzamiento" style="rhombus;whiteSpace=wrap;html=1;" vertex="1" parent="1">
          <mxGeometry x="590" y="700" width="80" height="60" as="geometry" />
        </mxCell>
        <mxCell id="GW2W4hNWjXhKejxjapf5-53" value="duracion" style="ellipse;whiteSpace=wrap;html=1;" vertex="1" parent="1">
          <mxGeometry x="480" y="630" width="70" height="40" as="geometry" />
        </mxCell>
        <mxCell id="GW2W4hNWjXhKejxjapf5-54" value="nombre&amp;nbsp;" style="ellipse;whiteSpace=wrap;html=1;" vertex="1" parent="1">
          <mxGeometry x="354" y="630" width="76" height="40" as="geometry" />
        </mxCell>
        <mxCell id="GW2W4hNWjXhKejxjapf5-55" value="artista/grupo musical" style="rounded=0;whiteSpace=wrap;html=1;" vertex="1" parent="1">
          <mxGeometry x="690" y="510" width="120" height="50" as="geometry" />
        </mxCell>
        <mxCell id="GW2W4hNWjXhKejxjapf5-56" value="id" style="ellipse;whiteSpace=wrap;html=1;" vertex="1" parent="1">
          <mxGeometry x="707" y="450" width="73" height="40" as="geometry" />
        </mxCell>
        <mxCell id="GW2W4hNWjXhKejxjapf5-57" value="name" style="ellipse;whiteSpace=wrap;html=1;" vertex="1" parent="1">
          <mxGeometry x="720" y="610" width="90" height="50" as="geometry" />
        </mxCell>
        <mxCell id="GW2W4hNWjXhKejxjapf5-58" value="" style="endArrow=none;html=1;rounded=0;entryX=0.758;entryY=0.038;entryDx=0;entryDy=0;entryPerimeter=0;" edge="1" parent="1" source="GW2W4hNWjXhKejxjapf5-53" target="GW2W4hNWjXhKejxjapf5-54">
          <mxGeometry width="50" height="50" relative="1" as="geometry">
            <mxPoint x="400" y="572.5" as="sourcePoint" />
            <mxPoint x="450" y="522.5" as="targetPoint" />
            <Array as="points">
              <mxPoint x="470" y="590" />
              <mxPoint x="480" y="610" />
            </Array>
          </mxGeometry>
        </mxCell>
        <mxCell id="GW2W4hNWjXhKejxjapf5-59" value="" style="endArrow=none;html=1;rounded=0;entryX=0;entryY=0;entryDx=0;entryDy=0;" edge="1" parent="1" source="GW2W4hNWjXhKejxjapf5-52" target="GW2W4hNWjXhKejxjapf5-51">
          <mxGeometry width="50" height="50" relative="1" as="geometry">
            <mxPoint x="530" y="610" as="sourcePoint" />
            <mxPoint x="580" y="560" as="targetPoint" />
            <Array as="points">
              <mxPoint x="530" y="580" />
              <mxPoint x="490" y="570" />
            </Array>
          </mxGeometry>
        </mxCell>
        <mxCell id="GW2W4hNWjXhKejxjapf5-60" value="" style="endArrow=none;html=1;rounded=0;startArrow=none;" edge="1" parent="1" source="GW2W4hNWjXhKejxjapf5-80" target="GW2W4hNWjXhKejxjapf5-50">
          <mxGeometry width="50" height="50" relative="1" as="geometry">
            <mxPoint x="665" y="690" as="sourcePoint" />
            <mxPoint x="715" y="640" as="targetPoint" />
            <Array as="points" />
          </mxGeometry>
        </mxCell>
        <mxCell id="GW2W4hNWjXhKejxjapf5-61" style="edgeStyle=orthogonalEdgeStyle;rounded=0;orthogonalLoop=1;jettySize=auto;html=1;exitX=0.5;exitY=1;exitDx=0;exitDy=0;" edge="1" parent="1" source="GW2W4hNWjXhKejxjapf5-53" target="GW2W4hNWjXhKejxjapf5-53">
          <mxGeometry relative="1" as="geometry" />
        </mxCell>
        <mxCell id="GW2W4hNWjXhKejxjapf5-62" value="" style="endArrow=none;html=1;rounded=0;" edge="1" parent="1" source="GW2W4hNWjXhKejxjapf5-57" target="GW2W4hNWjXhKejxjapf5-55">
          <mxGeometry width="50" height="50" relative="1" as="geometry">
            <mxPoint x="707" y="620" as="sourcePoint" />
            <mxPoint x="757" y="570" as="targetPoint" />
          </mxGeometry>
        </mxCell>
        <mxCell id="GW2W4hNWjXhKejxjapf5-64" value="" style="endArrow=none;html=1;rounded=0;" edge="1" parent="1" source="GW2W4hNWjXhKejxjapf5-55">
          <mxGeometry width="50" height="50" relative="1" as="geometry">
            <mxPoint x="700" y="540" as="sourcePoint" />
            <mxPoint x="750" y="490" as="targetPoint" />
          </mxGeometry>
        </mxCell>
        <mxCell id="GW2W4hNWjXhKejxjapf5-65" value="" style="endArrow=none;html=1;rounded=0;exitX=0;exitY=0.5;exitDx=0;exitDy=0;entryX=0;entryY=0.5;entryDx=0;entryDy=0;" edge="1" parent="1" source="GW2W4hNWjXhKejxjapf5-48" target="GW2W4hNWjXhKejxjapf5-49">
          <mxGeometry width="50" height="50" relative="1" as="geometry">
            <mxPoint x="550" y="260" as="sourcePoint" />
            <mxPoint x="600" y="210" as="targetPoint" />
            <Array as="points">
              <mxPoint x="610" y="320" />
            </Array>
          </mxGeometry>
        </mxCell>
        <mxCell id="GW2W4hNWjXhKejxjapf5-69" style="edgeStyle=orthogonalEdgeStyle;rounded=0;orthogonalLoop=1;jettySize=auto;html=1;exitX=0.5;exitY=1;exitDx=0;exitDy=0;" edge="1" parent="1" source="GW2W4hNWjXhKejxjapf5-48" target="GW2W4hNWjXhKejxjapf5-48">
          <mxGeometry relative="1" as="geometry" />
        </mxCell>
        <mxCell id="GW2W4hNWjXhKejxjapf5-72" value="1" style="text;html=1;strokeColor=none;fillColor=none;align=center;verticalAlign=middle;whiteSpace=wrap;rounded=0;" vertex="1" parent="1">
          <mxGeometry x="100" y="440" width="60" height="30" as="geometry" />
        </mxCell>
        <mxCell id="GW2W4hNWjXhKejxjapf5-73" value="N" style="text;html=1;strokeColor=none;fillColor=none;align=center;verticalAlign=middle;whiteSpace=wrap;rounded=0;" vertex="1" parent="1">
          <mxGeometry x="370" y="570" width="60" height="30" as="geometry" />
        </mxCell>
        <mxCell id="GW2W4hNWjXhKejxjapf5-74" value="M" style="text;html=1;strokeColor=none;fillColor=none;align=center;verticalAlign=middle;whiteSpace=wrap;rounded=0;" vertex="1" parent="1">
          <mxGeometry x="250" y="640" width="60" height="30" as="geometry" />
        </mxCell>
        <mxCell id="GW2W4hNWjXhKejxjapf5-75" value="N" style="text;html=1;strokeColor=none;fillColor=none;align=center;verticalAlign=middle;whiteSpace=wrap;rounded=0;" vertex="1" parent="1">
          <mxGeometry x="260" y="520" width="60" height="30" as="geometry" />
        </mxCell>
        <mxCell id="GW2W4hNWjXhKejxjapf5-76" value="N" style="text;html=1;strokeColor=none;fillColor=none;align=center;verticalAlign=middle;whiteSpace=wrap;rounded=0;" vertex="1" parent="1">
          <mxGeometry x="100" y="525" width="60" height="30" as="geometry" />
        </mxCell>
        <mxCell id="GW2W4hNWjXhKejxjapf5-77" value="M" style="text;html=1;strokeColor=none;fillColor=none;align=center;verticalAlign=middle;whiteSpace=wrap;rounded=0;" vertex="1" parent="1">
          <mxGeometry x="260" y="435" width="60" height="30" as="geometry" />
        </mxCell>
        <mxCell id="GW2W4hNWjXhKejxjapf5-81" value="N" style="text;html=1;strokeColor=none;fillColor=none;align=center;verticalAlign=middle;whiteSpace=wrap;rounded=0;" vertex="1" parent="1">
          <mxGeometry x="590" y="410" width="60" height="30" as="geometry" />
        </mxCell>
        <mxCell id="GW2W4hNWjXhKejxjapf5-82" value="1" style="text;html=1;strokeColor=none;fillColor=none;align=center;verticalAlign=middle;whiteSpace=wrap;rounded=0;" vertex="1" parent="1">
          <mxGeometry x="510" y="350" width="60" height="30" as="geometry" />
        </mxCell>
        <mxCell id="GW2W4hNWjXhKejxjapf5-83" value="M" style="text;html=1;strokeColor=none;fillColor=none;align=center;verticalAlign=middle;whiteSpace=wrap;rounded=0;" vertex="1" parent="1">
          <mxGeometry x="630" y="690" width="60" height="30" as="geometry" />
        </mxCell>
        <mxCell id="GW2W4hNWjXhKejxjapf5-84" value="N" style="text;html=1;strokeColor=none;fillColor=none;align=center;verticalAlign=middle;whiteSpace=wrap;rounded=0;" vertex="1" parent="1">
          <mxGeometry x="570" y="690" width="60" height="30" as="geometry" />
        </mxCell>
        <mxCell id="GW2W4hNWjXhKejxjapf5-85" value="N" style="text;html=1;strokeColor=none;fillColor=none;align=center;verticalAlign=middle;whiteSpace=wrap;rounded=0;" vertex="1" parent="1">
          <mxGeometry x="450" y="525" width="60" height="30" as="geometry" />
        </mxCell>
        <mxCell id="GW2W4hNWjXhKejxjapf5-80" value="1" style="text;html=1;strokeColor=none;fillColor=none;align=center;verticalAlign=middle;whiteSpace=wrap;rounded=0;" vertex="1" parent="1">
          <mxGeometry x="640" y="480" width="60" height="30" as="geometry" />
        </mxCell>
        <mxCell id="GW2W4hNWjXhKejxjapf5-86" value="" style="endArrow=none;html=1;rounded=0;" edge="1" parent="1" source="GW2W4hNWjXhKejxjapf5-52" target="GW2W4hNWjXhKejxjapf5-80">
          <mxGeometry width="50" height="50" relative="1" as="geometry">
            <mxPoint x="637.6595744680849" y="705.7446808510638" as="sourcePoint" />
            <mxPoint x="651.7647058823532" y="471.17647058823536" as="targetPoint" />
            <Array as="points">
              <mxPoint x="690" y="540" />
            </Array>
          </mxGeometry>
        </mxCell>
        <mxCell id="GW2W4hNWjXhKejxjapf5-87" value="&lt;div style=&quot;color: rgb(212 , 212 , 212) ; background-color: rgb(30 , 30 , 30) ; font-family: &amp;#34;consolas&amp;#34; , &amp;#34;courier new&amp;#34; , monospace ; font-size: 14px ; line-height: 19px&quot;&gt;Spotify&lt;/div&gt;" style="text;html=1;strokeColor=none;fillColor=none;align=center;verticalAlign=middle;whiteSpace=wrap;rounded=0;" vertex="1" parent="1">
          <mxGeometry x="450" width="60" height="30" as="geometry" />
        </mxCell>
      </root>
    </mxGraphModel>
  </diagram>
</mxfile>
